<?xml version="1.0"?>
<svg width="640" height="480" xmlns="http://www.w3.org/2000/svg" xmlns:svg="http://www.w3.org/2000/svg">
 <!-- Created with SVG-edit - https://github.com/SVG-Edit/svgedit-->
 <g class="layer">
  <title>Layer 1</title>
  <circle cx="325.999983" cy="236.000003" fill="#FF0000" id="svg_1" r="136.867523" stroke="#000000" stroke-width="5"/>
  <path d="m614.5,440.5c-47,49 -819,-561 -320,-312c499,249 90,202 133,113c43,-89 -706,210 -258,35c448,-175 630,-313 199.5,-153.5" fill="#FF0000" id="svg_3" stroke="#000000" stroke-dasharray="null" stroke-linecap="null" stroke-linejoin="null" stroke-width="5"/>
  <path d="m193.5,193.5c0.060256,-0.530781 0.494137,-0.642299 1.23116,-0.780837c0.483192,-0.090828 1.139666,-0.202747 1.551001,-0.275714c0.479512,-0.085062 1.67702,-0.299622 2.409774,-0.432404c0.821409,-0.14885 1.724938,-0.313661 2.705033,-0.493093c1.051282,-0.192466 2.167439,-0.397567 3.342787,-0.614115c1.229135,-0.226461 3.824561,-0.706217 5.179282,-0.957591c1.386222,-0.257216 2.798498,-0.52009 4.231088,-0.788741c1.44936,-0.271794 2.909383,-0.547378 4.374255,-0.826958c1.466963,-0.279979 4.381471,-0.845197 5.819803,-1.129021c1.426019,-0.281394 2.837407,-0.563339 4.237597,-0.841828c1.388235,-0.276113 2.764908,-0.549581 4.133471,-0.816332c1.356972,-0.264494 4.046948,-0.774293 5.382587,-1.015861c1.322427,-0.239182 2.635217,-0.468169 3.936069,-0.686294c1.281306,-0.214841 2.546311,-0.418474 3.792906,-0.609871c1.220607,-0.187402 3.589557,-0.526753 4.73362,-0.677924c1.112023,-0.146939 2.197124,-0.281178 3.253848,-0.405515c1.025775,-0.120698 2.024056,-0.231482 2.993539,-0.335453c0.939473,-0.100752 2.733242,-0.284493 3.587185,-0.371369c0.829383,-0.084382 1.638906,-0.166441 2.431714,-0.250002c0.78205,-0.082427 1.556907,-0.166668 2.327581,-0.256363c0.773841,-0.090062 2.341748,-0.289407 3.142378,-0.400861c0.812359,-0.113085 1.627343,-0.233437 2.441467,-0.356683c0.809666,-0.122577 1.607296,-0.247022 2.389412,-0.369426c0.761407,-0.119164 2.200368,-0.344437 2.869768,-0.44668c0.634083,-0.096843 1.235595,-0.186905 1.804802,-0.27282c0.539031,-0.081358 1.049552,-0.158547 1.531475,-0.234603c0.457087,-0.072136 1.298397,-0.213956 1.684297,-0.28621c0.367993,-0.068896 0.715608,-0.139174 1.045569,-0.2086c0.315486,-0.06638 0.615128,-0.132544 0.902401,-0.195857c0.275766,-0.060775 0.797739,-0.174184 1.047489,-0.224927c0.240051,-0.048778 0.471121,-0.093355 0.689823,-0.136421c0.20598,-0.040571 0.398324,-0.078507 0.572672,-0.117296c0.159166,-0.035409 0.42039,-0.105299 0.514592,-0.143138c0.082948,-0.033325 0.146379,-0.069566 0.19306,-0.106152c0.043835,-0.034351 0.073901,-0.070656 0.101959,-0.106163c0.027859,-0.035258 0.086545,-0.106821 0.128582,-0.141539c0.043725,-0.036122 0.096806,-0.071272 0.155106,-0.106152c0.060032,-0.035917 0.125724,-0.071045 0.194142,-0.106163c0.069443,-0.035647 0.213858,-0.106065 0.285861,-0.141539c0.07165,-0.035301 0.142263,-0.070408 0.209323,-0.106152c0.065736,-0.035042 0.127931,-0.07016 0.183307,-0.106163c0.053533,-0.034804 0.140674,-0.105536 0.170398,-0.141593c0.029073,-0.035258 0.048833,-0.072103 0.061831,-0.109877c0.01335,-0.0388 0.019463,-0.079706 0.022773,-0.122609c0.003498,-0.045333 0.003255,-0.144898 0.003255,-0.199626c0,-0.057568 0,-0.117253 0,-0.178352c0,-0.061801 0,-0.123603 0,-0.184702c0,-0.059685 0,-0.171981 0,-0.223524c0,-0.049415 0,-0.098139 0,-0.147554c0,-0.051542 0,-0.106627 0,-0.166668c0,-0.066402 0.00032,-0.223988 -0.000121,-0.317462c-0.000485,-0.102329 -0.001798,-0.211731 -0.007591,-0.326436c-0.005969,-0.118268 -0.015645,-0.238339 -0.033618,-0.35827c-0.01773,-0.118344 -0.074618,-0.342796 -0.118828,-0.445092c-0.04186,-0.096843 -0.094754,-0.187618 -0.155106,-0.27282c-0.058134,-0.082071 -0.123209,-0.160156 -0.194142,-0.234603c-0.343488,-0.360506 -0.571381,-0.570293 -0.936748,-0.923207c-0.293871,-0.283845 -0.518586,-0.505922 -0.955427,-0.778364c-0.342639,-0.213686 -0.798291,-0.507369 -1.477004,-0.611577c-0.650776,-0.09991 -1.303472,-0.025474 -1.921093,-0.025474c-0.708017,0 -1.325506,0.000097 -1.705867,-0.012743c-1.052597,-0.035528 -1.393746,-0.065484 -2.173446,-0.112048c-0.429636,-0.025658 -0.880677,-0.053346 -1.350341,-0.078561c-0.978023,-0.052514 -1.985859,-0.093107 -2.492088,-0.107512c-0.505137,-0.014373 -1.009126,-0.0238 -1.510876,-0.030247c-0.498749,-0.006404 -1.484837,-0.011587 -1.970622,-0.012267c-0.953496,-0.001328 -1.420127,-0.000475 -2.337467,-0.000475c-0.453611,0 -0.905777,0 -1.357943,0c-0.910113,0 -1.837582,0 -2.311076,0c-0.480003,0 -1.456636,0 -1.951821,0c-0.498804,0 -1.000498,0 -1.504366,0c-1.011344,0 -1.517496,0 -2.52981,0c-0.506152,0 -1.012304,0 -1.518456,0c-0.506152,0 -1.012315,0 -2.024618,0c-1.012304,0 -1.518467,0 -2.024618,0c-0.506152,0 -1.012304,0 -1.518456,0c-0.506163,0 -2.024618,0 -2.53077,0c-0.506157,0 -1.012315,0 -1.518467,0c-0.506152,0 -1.012309,0 -2.53077,0c-0.506036,0 -1.011344,0 -1.515206,0c-0.501694,0 -1.000498,0 -1.986537,0c-0.485784,0 -1.439286,0 -1.905911,0c-0.460838,0 -1.370952,0 -1.823118,0c-0.452166,0 -1.362279,0 -2.289743,0c-0.473377,0 -0.952536,0 -1.436031,0c-0.974228,0 -1.462064,0 -1.948456,0c-0.483495,0 -1.436031,0 -2.362535,0c-0.454213,0 -0.903361,0 -1.789372,0c-0.438308,0 -0.874443,-0.000605 -2.176464,0.000054c-0.430469,0.000216 -0.855256,-0.00122 -1.675608,0.007322c-0.390049,0.00406 -1.114985,0.022818 -2.022688,0.071002l-0.475303,0.048011l-0.568341,0.089694" fill="#ffff00" id="svg_7" stroke="#000000" stroke-dasharray="null" stroke-linecap="null" stroke-linejoin="null" stroke-width="5"/>
  <path d="m203.5,193.5c0,1.700012 0,2.635986 0,3.485321c0,0.919189 0,1.914673 0,2.714691c0,1 0,1.799988 0,2.799988c0,0.82132 0,1.514343 0,2.642822c0,0.667023 0,1.378021 0,2.474518c0,1.061005 0,1.721008 0,2.635986c0,1.080017 0,1.794006 0,2.699341c0,0.968994 0,1.794006 0,2.708984c0,1.005005 0,1.726349 0,2.495667c0,0.825348 0.000618,1.714691 0,2.676025c-0.000671,1.033325 0.00264,1.567627 -0.020836,2.645813c-0.011627,0.534271 -0.018394,1.572784 -0.2005,2.956329c-0.104897,0.796936 -0.299706,1.497528 -0.494667,2.46051c-0.182251,0.900208 -0.26149,1.80365 -0.279495,2.70401c-0.017998,0.899811 -0.004501,1.799988 -0.004501,2.699982c0,0.600006 0.034248,1.801086 -0.041664,2.679169c-0.04895,0.566254 -0.376762,1.614349 -0.809006,2.284851c-0.551125,0.854889 -1.054428,1.624786 -1.140327,2.578827c-0.080711,0.896423 0.067993,1.872742 -0.094337,2.542511c-0.238678,0.984741 -0.715729,1.716095 -1.114662,2.514648c-0.399734,0.80014 -0.826897,1.587463 -1.189339,2.399994c-0.35183,0.788727 -0.373474,1.643921 -0.720497,2.542847c-0.32325,0.837341 -1.317177,1.042358 -1.775833,1.957153c-0.406631,0.811035 -0.114334,1.800018 -0.114334,2.700012c0,0.799988 0,1.700012 0,2.600006c0,0.899994 0,1.799988 0,2.704498c0,0.862152 0,1.716339 0,2.695496c0,0.789337 0,1.833344 0,2.589325c0,0.910675 0.081703,1.814789 -0.004501,2.715179c-0.083603,0.873291 -0.551102,1.675354 -0.828835,2.528839c-0.241356,0.741699 -0.610863,1.55896 -1.266495,2.266663c-0.549957,0.593628 -0.732742,1.417236 -0.910835,2.299988c-0.190399,0.943756 -0.705978,1.646423 -1.073334,2.399994c-0.406624,0.834106 -1.31546,1.182007 -2.216003,1.200012c-0.899811,0.018005 -1.86058,0.198181 -2.699997,-0.166656c-0.684547,-0.297516 -1.300003,-1.133331 -1.800003,-1.633331c-0.700005,-0.700012 -1.321381,-1.507568 -2,-1.914673c-0.735939,-0.441467 -1.699516,-0.656128 -2.115997,-1.485352c-0.426666,-0.849487 -0.727989,-1.438629 -1.405334,-2.121307c-0.676003,-0.681335 -1.194653,-1.194672 -1.925999,-1.926025c-0.505325,-0.50531 -1.272713,-1.205597 -1.731834,-1.773499c-0.752186,-0.930389 -0.654095,-1.900146 -1.1875,-2.645813c-0.441513,-0.617188 -1.387806,-0.835968 -1.933331,-1.654846c-0.446674,-0.670502 -0.91449,-1.67157 -1.195503,-2.278503c-0.366436,-0.791412 -0.65218,-1.797577 -0.693832,-2.600006c-0.051846,-0.998718 -0.010666,-1.799988 -0.010666,-2.799988c0,-0.810669 0,-1.457153 0,-2.421326c0,-0.804016 0.017918,-1.62616 -0.001335,-2.893341c-0.010101,-0.664703 -0.107433,-1.708008 -0.445332,-2.485321c-0.270161,-0.62149 -1.038067,-1.596924 -1.532501,-2.179169c-0.4534,-0.533905 -0.997688,-1.499359 -1.020832,-2.420837c-0.022598,-0.899719 -0.353588,-1.62326 -0.716,-2.399994c-0.368561,-0.789917 0.517498,-1.217316 1.416,-1.200012c0.900551,0.017334 1.708794,0.426788 2.299999,1c0.609203,0.590668 1.216743,1.426178 2,1.833344c0.743851,0.386688 1.505142,0.682251 2.200001,1.366669c0.604507,0.595428 1.199997,1.199982 1.899998,1.899994c0.599998,0.600006 1.242664,1.170349 1.700005,1.785339c0.665459,0.894867 0.949142,1.668396 1.5,2.357483c0.643867,0.80545 1.174568,1.2836 1.899994,1.955841c0.58046,0.537903 1.435959,0.858093 1.884003,1.602661c0.483299,0.803162 0.897957,1.579132 0.916,1.310669c0.051575,-0.767426 0,-1.713318 0,-2.725494c0,-0.694519 0,-1.886505 0,-2.645172c0,-0.870667 0,-1.34549 0,-2.369171c0,-0.546814 0,-2.315155 0,-2.942841c0,-0.643646 0,-1.301331 0,-1.970978c0,-1.36734 0,-2.061005 0,-3.458344c0,-0.699341 0,-1.394653 0,-2.082001c0,-1.334656 0,-1.973999 0,-2.589325c0,-1.662018 0,-2.14267 0,-3c0,-1.085999 -0.008568,-1.723358 0.001335,-2.929993c0.005005,-0.609406 0.027664,-1.559296 0.165329,-2.565338c0.098572,-0.720367 0.252098,-1.462952 0.537834,-2.580688c0.278755,-1.090424 0.497559,-1.764984 0.684837,-2.405975c0.258179,-0.883667 0.476768,-1.926941 0.610664,-2.825836c0.152397,-1.023071 0.389641,-1.608185 0.647331,-2.420837c0.312881,-0.986694 0.347336,-1.799988 0.352669,-2.800018c0.004265,-0.799988 0,-1.799988 0,-2.589325c0,-1.044006 0,-1.835999 0,-2.697327c0,-0.76001 0,-1.934662 0,-2.738678c0,-0.821991 0,-1.853149 0,-2.538666c0,-0.834656 0,-1.835999 0,-2.635986c0,-1 0,-1.800018 0,-2.799835c0,-0.779327 0,-1.778656 0,-2.598846c0,-0.873322 0,-1.744171 0,-2.722168c0,-0.796478 0,-1.79248 0,-2.632477c0,-0.96402 0,-1.656525 0,-2.61734c0,-0.770996 0,-1.632019 0,-2.828003c0,-0.590668 0,-1.444183 0,-2.479675c0,-0.880005 0,-1.900146 0,-2.720337c0,-0.901337 0.009407,-2.013062 -0.704498,-2.196838c-0.867241,-0.223236 -1.795502,-0.004547 -2.706169,-0.004486c-0.910667,0.000092 -1.804276,-0.084381 -2.70533,0.283997c-0.678543,0.277405 -1.558578,0.61264 -2.345673,0.825836c-0.980316,0.265533 -1.762238,0.737 -2.276997,1.0755c-0.945713,0.621887 -1.58007,1.225861 -2.229332,1.613342c-0.770615,0.4599 -1.571838,0.706635 -2.434669,1.001312c-0.89563,0.305878 -1.814442,0.605835 -2.433331,0.872009c-0.656578,0.282379 -1.69014,0.863159 -2.416668,1.333344c-0.752392,0.486938 -1.473934,1.024048 -2.580666,1.661316c-0.666843,0.383972 -1.314545,0.649536 -2.147835,1.024353c-0.881687,0.396576 -1.472858,0.845947 -2.340168,1.408997c-0.660744,0.428955 -1.540722,0.864929 -2.157833,1.399994c-0.758472,0.657623 -1.338036,1.173553 -2.120831,1.52533c-0.82024,0.368591 -1.499992,1.074677 -2.100002,1.674683c-0.599991,0.599976 -1.299664,1.300323 -1.899998,1.899994c-0.599667,0.598999 -1.174816,1.214081 -2.100002,1.395508c-0.886364,0.173798 -1.528152,0.765594 -2,1.299164c-0.667568,0.754883 -0.299999,0.705322 0.5,0.705322c0.957169,0 1.857166,0 2.6045,0c0.996834,0 1.831501,0 2.762169,0c0.781498,0 1.572571,0.035645 2.690498,-0.000153c0.892365,-0.028564 1.803829,-0.348816 2.3535,-0.610504c0.996498,-0.474396 1.774124,-0.911713 2.389332,-1.104004c0.985119,-0.307922 1.885277,-0.322845 2.821503,-0.728333c0.844749,-0.365875 1.391754,-0.774384 1.979832,-1.159668c0.90218,-0.591095 1.784267,-1.163208 2.290668,-1.56134c0.980446,-0.770813 1.285294,-1.420959 2.141331,-2.002655c0.556084,-0.377869 1.334572,-0.672607 2.184002,-1.044006c0.447254,-0.195557 1.819138,-0.782501 2.694668,-1.189331c0.423378,-0.196716 1.236443,-0.580292 1.969166,-1c1.001167,-0.573486 1.78389,-1.218719 2.497498,-1.727997c0.799492,-0.570587 1.658791,-0.700439 2.335999,-1.040009c0.81459,-0.408447 1.170784,-1.254517 1.970673,-1.947998c0.497887,-0.431671 1.516853,-1.047943 2.114662,-1.532166c0.602211,-0.487793 1.381905,-1.079041 2.200005,-1.290497c0.786995,-0.2034 1.787697,-0.449829 2.599998,-0.708679c0.985687,-0.314087 1.855751,-0.260132 2.578667,-0.795502c0.625526,-0.463226 1.151924,-1.439484 1.85733,-1.921173c0.543472,-0.371094 1.564003,-0.835999 2.164001,-1.135986c1.000008,-0.5 1.784477,-0.929779 2.400002,-1.142822c0.97963,-0.33905 1.821968,-0.29245 2.799667,-0.578674c0.782738,-0.229156 1.446892,-0.956604 1.96833,-1.578491c0.59433,-0.708801 1.437874,-0.993683 2.230667,-1.400024c0.768494,-0.39389 1.517242,-0.994293 2.296837,-1.44281c0.755814,-0.434845 1.770668,-0.221893 2.504494,-0.642517c0.686569,-0.393555 1.215309,-1.38858 2.100006,-1.657501c0.862907,-0.262299 1.750824,-0.358032 2.399994,-0.704498c0.849373,-0.453339 1.800003,-0.352661 2.700005,-0.352661c0.900002,0 1.803764,-0.082123 2.699997,0.000153c0.911438,0.083679 1.547981,0.565247 2.195503,1.299835c0.583733,0.662231 0.488342,1.429474 -0.295502,1.866669c-0.651871,0.363586 -1.292892,1.140503 -2,1.833344c-0.515701,0.50528 -1.313148,1.11499 -2.020836,1.5c-0.573982,0.312286 -1.618706,0.738708 -2.321999,1.257172c-0.684303,0.504456 -1.136032,1.278229 -1.541168,1.844147c-0.731499,1.02182 -1.282539,1.57077 -1.949333,2.232025c-0.638145,0.632843 -1.406548,0.997223 -2.051994,1.335999c-0.83107,0.436188 -1.463135,1.181366 -2.09317,1.809143c-0.611931,0.609741 -1.321503,1.321503 -1.821503,1.821503c-0.700005,0.700012 -1.321381,1.507568 -2,1.914673c-0.735939,0.441467 -1.608818,0.712158 -2.299995,1.385345c-0.607864,0.592041 -1.200005,1.199982 -1.900002,1.899994c-0.599998,0.600006 -1.389938,1.080109 -1.833336,2c-0.311996,0.647278 -0.166664,1.600006 -0.166664,2.5c0,0.910675 0,1.82132 0,2.674652c0,0.942688 0,1.794678 0,2.593353c0,0.981323 0,1.898651 0,2.690338c0,0.94165 0,1.841644 0,2.741669c0,0.899994 -0.025368,1.800385 0,2.599976c0.028595,0.901398 0.553391,1.698273 1.099998,2.521179c0.426064,0.641418 1.178741,1.214508 1.733337,1.84549c0.592537,0.674133 0.922142,1.372314 1.145828,2.333344c0.204155,0.877106 0.429718,1.627319 0.854172,2.5c0.320847,0.659668 0.600494,1.674805 1.466667,1.942841c0.861496,0.266602 1.799995,0.057159 2.699997,0.057159c0.757164,0 1.652664,0 2.515999,0c0.963165,0 1.894608,0.133331 2.784004,-0.004486c0.931679,-0.144379 1.431992,-0.875 2.199997,-1.47467c0.649803,-0.507385 1.601265,-0.473053 2.5,-0.520844c0.803406,-0.042725 1.537178,-0.746948 2.400002,-0.963989c0.873505,-0.219727 1.799995,-0.036011 2.699997,-0.036011c0.900002,0 1.700172,0.017303 2.599998,0c0.936523,-0.018005 1.791588,-0.271759 2.510674,-0.610657c0.998199,-0.470459 1.555069,-0.837463 2.303993,-1.104004c0.961159,-0.342072 1.969337,-0.285339 2.660004,-0.285339c1.068169,0 1.925331,0 2.825333,0c0.88533,0 1.844147,0.091309 2.515999,-0.085327c1.014168,-0.266663 1.680969,-0.871948 2.584,-0.914673c0.898994,-0.042511 1.786934,0.045227 2.725334,-0.010681c0.693466,-0.041321 1.58223,-0.651794 2.374664,-0.903992c0.861282,-0.274109 1.729477,0.351685 1.789337,1.100006c0.074219,0.927765 0.010666,1.698669 0.010666,2.640015c0,1.007996 0,1.870148 0,2.695496c0,0.963165 0,1.826477 0,2.721985c0,0.957184 0.036652,1.85791 0,2.757172c-0.02861,0.701752 -0.686203,1.422363 -0.942841,2.299988c-0.253128,0.865601 -0.057159,1.800171 -0.057159,2.585358c0,0.940002 0,1.947998 0,2.703979c0,0.910675 0,1.810669 0,2.710663c0,0.900024 0,1.800171 0,2.585358c0,0.940002 0,1.947998 0,2.703979c0,0.910675 0,1.82135 0,2.731995c0,0.853333 0,1.793335 0,2.67868c0,0.799988 0.010406,1.700073 0,2.600006c-0.010422,0.900177 -0.465942,1.636078 -0.878662,2.5c-0.407333,0.852661 -0.729752,1.557465 -1.605331,2.098663c-0.664627,0.410797 -1.624496,1.007294 -2.314667,0.544006c-0.793877,-0.532898 -0.805527,-1.573242 -1.001343,-2.146667c-0.407402,-1.193054 -0.625732,-1.78656 -0.842827,-2.696014c-0.283905,-1.189362 -0.286354,-1.797333 -0.3825,-2.664001c-0.118935,-1.072052 -0.348824,-1.766724 -0.622002,-2.574341c-0.343956,-1.016846 -0.256874,-1.866821 -0.353004,-2.76181c-0.085808,-0.798859 -0.725594,-1.535675 -1.148994,-2.074493c-0.717316,-0.912842 -0.908569,-1.931427 -1.461334,-2.389343c-0.685211,-0.567627 -1.710205,-0.771179 -2.389336,-1.436005c-0.494873,-0.484467 -0.704781,-1.575409 -1.435997,-1.963989c-0.851868,-0.452698 -1.864006,-0.036011 -2.764,-0.036011c-0.900337,0 -1.614334,0 -2.568001,0c-0.732002,0 -1.898666,0 -2.711166,0c-0.842171,0 -1.695503,0 -2.635506,0c-0.985329,0 -1.88533,0 -2.642494,0c-0.8955,0 -1.758835,0 -2.742836,0c-0.821503,0 -1.710754,-0.012726 -2.699997,0.000153c-0.800201,0.010406 -1.820404,0.112823 -2.589333,0.435852c-0.748756,0.314545 -1.359154,1.02652 -2.21067,1.397339c-0.74897,0.326141 -1.699997,0.166656 -2.636002,0.202667l-0.848,0.247986l-0.690666,0.29068l-0.940002,0.339996" fill="#ffff00" id="svg_9" stroke="#000000" stroke-dasharray="null" stroke-linecap="null" stroke-linejoin="null" stroke-width="5"/>
  <path d="m295.234243,199.546084c0.659692,0 1.159191,0 1.755879,0c0.527755,0 1.161054,0 1.705307,0c0.603613,0 1.266607,0 1.739824,0c0.736214,0 1.229221,0 1.945645,0c0.448596,0 1.071999,0 1.636042,0c0.660567,0 1.237576,0 1.904414,0c0.402744,0 0.979753,0 1.639445,0c0.551169,0 1.132043,-0.003423 1.724986,0.000102c0.600674,0.003565 1.016394,-0.004564 1.891006,0.111161c0.475462,0.062915 0.961866,0.17479 1.456594,0.272402c0.488659,0.09641 1.412031,0.23634 1.847138,0.259913c0.644592,0.034921 1.314119,0.021434 1.78644,0.024938c0.482931,0.003565 1.197503,0.000611 1.836589,0.110367c0.543388,0.093314 1.080323,0.397397 1.699469,0.518196c0.556595,0.108594 1.083545,0.038161 1.710693,0.038161c0.504885,0 1.173495,-0.011776 1.630758,0.024041c0.788699,0.061795 1.283578,0.160344 1.82603,0.267044c0.560661,0.110285 1.109425,0.221569 1.820302,0.443178c0.563742,0.175747 0.977498,0.389085 1.591178,0.56581c0.599698,0.172711 1.138173,0.421622 1.705961,0.591522c0.510663,0.152806 1.08893,0.111263 1.65847,0.111263c0.684756,0 1.310153,0 1.759402,0c0.532355,0 1.309921,0 1.706606,0c0.606603,0 1.026379,0 1.926429,0c0.485307,0 0.989094,0 1.506069,0c0.788658,0 1.318175,0 1.858241,0c0.561165,0 1.154017,0 1.789087,0c0.68079,0 1.03109,0 1.73169,0c0.342368,0 0.99151,0 1.818098,0c0.635291,0 1.175579,0 1.727744,0c0.638251,0 1.085729,0 1.72398,0c0.65794,0 1.219991,0 1.816366,0c0.617454,0 1.176888,0.003036 1.746407,0c0.670724,-0.003565 1.1879,-0.245284 1.618004,-0.478018c0.559031,-0.302495 1.106264,-0.598103 1.663301,-0.776214c0.544656,-0.174158 1.268026,-0.190885 1.578001,-0.615991c0.341241,-0.467994 0.660537,-0.995459 1.080897,-1.267597c0.506244,-0.327738 0.975787,-0.715173 1.08432,-1.335239c0.099534,-0.568601 0.467349,-0.903694 0.992497,-1.201707c0.527383,-0.299276 1.071375,-0.462696 1.45133,-0.804146c0.483072,-0.434091 1.039526,-0.974576 1.583135,-0.717027c0.434191,0.205718 0.586954,0.867347 0.593839,1.51227c0.005416,0.507377 0,1.121596 0,1.643357c0,0.695654 0,1.274585 0,1.907487c0,0.644474 0,1.159206 0,1.537982c0,0.795121 0,1.395994 0,1.79655c0,0.801151 0,1.40502 0,1.816496c0,0.643904 0,1.335687 0,1.826826c0,0.509842 0,1.033029 0,1.831165c0,0.533211 0,1.061064 0,1.831165c0,0.728049 0,1.182922 0,1.826826c0,0.411476 0,1.215622 0,1.616198c0,0.600853 0,1.402005 0,1.999863c0,0.389655 0,0.947458 0,1.767415c0,0.431606 0,1.106356 0,1.640443c0,0.667619 0.024944,1.212505 -0.05629,1.792781c-0.094239,0.673059 -0.290427,1.207269 -0.416052,1.756291c-0.151555,0.662261 -0.180465,1.110247 -0.18735,1.791884c-0.005395,0.534067 0,1.068195 0,1.732799c0,0.613669 0.038271,1.211894 -0.109942,0.937678c-0.236292,-0.437208 -0.840841,-0.809077 -1.129396,-1.402005c-0.212616,-0.436903 -0.484038,-0.989571 -0.723027,-1.535516c-0.229326,-0.52386 -0.494668,-0.994217 -1.006247,-1.388089c-0.486655,-0.37468 -1.010153,-0.572656 -1.517283,-0.825743c-0.557601,-0.27829 -1.230258,-0.141132 -1.722248,-0.487797c-0.350421,-0.246894 -0.803818,-0.819712 -1.163681,-1.129623c-0.509546,-0.438838 -1.056135,-0.65676 -1.599986,-0.958705c-0.514579,-0.285686 -1.121464,-0.283954 -1.716068,-0.283954c-0.636821,0 -1.078381,0.002302 -1.583256,0c-0.658846,-0.003015 -1.222185,-0.007029 -1.845397,-0.379203c-0.411099,-0.245508 -0.918551,-0.82886 -1.468905,-0.941794c-0.555326,-0.113952 -1.135979,-0.014242 -1.726738,-0.014242c-0.632312,0 -1.269133,0 -1.710693,0c-0.504875,0 -1.160721,0 -1.767103,0c-0.650008,0 -1.191826,0 -1.754762,0c-0.620112,0 -1.27024,0 -1.788222,0c-0.634184,0 -1.039888,0 -1.845377,0c-0.52543,0 -1.021185,0 -1.654161,0c-0.64419,0 -1.22142,0 -1.646934,0c-0.657054,0 -1.182484,0 -1.965878,0c-0.522249,0 -1.143458,0 -1.737186,0c-0.594604,0 -1.231426,0 -1.665939,0c-0.664966,0 -1.187447,0 -1.868136,0c-0.493007,0 -1.148853,0 -1.653739,0c-0.627148,0 -1.277277,0 -1.795238,0c-0.634184,0 -1.039898,0 -1.846263,0c-0.538305,0 -1.076609,0 -1.734549,0c-0.554139,0 -1.189148,0.031397 -1.772367,0c-0.53,-0.028524 -1.116129,-0.289476 -1.295637,-0.934663c-0.161088,-0.578951 -0.148193,-1.153644 -0.488498,-1.535537c-0.432621,-0.485495 -1.029017,-0.710731 -1.514323,-0.97916c-0.485196,-0.268368 -0.656168,-0.90891 -0.659692,-0.48959c-0.005043,0.600833 0,1.134941 0,1.735815c0,0.600853 0,1.201707 0,1.80256c0,0.600853 0,1.201727 0,1.802581c0,0.600853 -0.081988,1.119884 -0.379099,1.669049c-0.281871,0.521007 -0.280592,1.134941 -0.280592,1.736691c0,0.644474 0,1.08423 0,1.757187c0,0.528749 0,1.214624 0,1.67838c0,0.678764 0,1.306654 0,1.882243c0,0.570272 0,1.223976 0,1.750953c0,0.484252 0,1.155987 0,1.838398c0,0.486697 0,1.045498 0,1.840517c0,0.397683 0,0.97751 0,1.691419c0,0.614198 0,1.121596 0,1.766396c0,0.614769 0.08687,1.249056 -0.146009,1.74973c-0.240811,0.517747 0.070583,1.661041 -0.513683,1.659473c-0.452652,-0.001222 0.021713,-0.976043 0.14623,-1.56891c0.131624,-0.626729 0.264084,-1.095109 0.438701,-1.571782c0.262665,-0.717027 0.48884,-1.160449 0.873425,-1.75896c0.245562,-0.382158 0.643757,-0.892529 1.041438,-1.335239c0.357387,-0.397846 0.81785,-0.984131 1.257477,-1.258469c0.544797,-0.339963 1.190416,-0.241454 1.784135,-0.241454c0.596698,0 1.165462,0 1.715202,0c0.645619,0 1.156222,0 1.75291,0c0.493007,0 1.278706,0 1.771713,0c0.593718,0 1.225154,0 1.818994,0c0.517961,0 1.145109,0 1.649994,0c0.655846,0 1.148864,-0.00326 1.822507,0c0.620464,0.003015 1.195953,0.21403 1.623721,0.567929c0.350008,0.289557 0.931748,0.729088 1.566546,0.76731c0.592682,0.035695 1.187447,0 1.686947,0c0.590759,0 1.160278,0 1.79567,0c0.607469,0 1.204167,0 1.772921,0c0.54975,0 1.195248,0 1.736321,0c0.594604,0 1.188343,-0.003606 1.782041,0c0.586733,0.003565 0.977659,0.29789 0.989537,0.991629c0.008294,0.484171 0,1.144639 0,1.664933c0,0.667171 0.001208,1.214746 0,1.773751c-0.00149,0.681759 0.019448,1.196695 -0.188236,1.844429c-0.169332,0.528077 -0.576083,1.027671 -0.843519,1.462516c-0.320102,0.520498 -0.438237,1.154439 -0.617474,1.609413c-0.256303,0.650627 -0.262745,1.20788 -0.353602,1.759836c-0.09595,0.582924 -0.381143,1.050266 -0.701788,1.711671c-0.251854,0.5195 -0.532174,1.082905 -0.586793,1.595274c-0.065913,0.618355 0.03958,1.269879 -0.030802,1.726015c-0.098849,0.640664 -0.760413,0.910927 -1.107391,1.274728c-0.439546,0.460842 -0.188236,1.145617 -0.188236,1.746491c0,0.600853 -0.579646,1.788319 0,1.788319c0.119625,0 0,-0.720144 0,-1.320997c0,-0.600853 0.133275,-1.278436 -0.235627,-1.799565c-0.321994,-0.454893 -0.945408,-0.511105 -1.403053,-0.84954c-0.480837,-0.35559 -0.998939,-0.764111 -1.458899,-0.988186c-0.548461,-0.267186 -1.057564,-0.616378 -1.652208,-0.635469c-0.593416,-0.01905 -1.187437,0 -1.715192,0c-0.593718,0 -1.187447,0 -1.794905,0c-0.636278,0 -1.11477,0 -1.767314,0c-0.514126,0 -1.173485,0 -1.684088,0c-0.593718,0 -1.176143,0.115684 -1.79865,-0.013916c-0.572086,-0.119107 -1.065214,-0.613057 -1.662969,-0.653704c-0.526567,-0.035797 -1.121474,0 -1.715202,0c-0.593718,0 -1.194473,0 -1.795238,0c-0.562936,0 -1.183048,0 -1.767093,0c-0.527755,0 -1.079256,0 -1.74994,0c-0.458269,0 -1.135989,0 -1.7605,0c-0.562936,0 -1.183924,0 -1.69057,0c-0.620987,0 -1.285954,0 -1.784688,0c-0.600755,0 -1.257738,-0.122245 -1.721352,0.190498c-0.524655,0.353919 -0.528188,1.011209 -0.528631,1.612082c-0.000433,0.600853 0.073523,1.24816 -0.235617,1.735794c-0.338553,0.534047 -0.852065,0.842796 -1.067056,1.409136c-0.223216,0.587997 -0.323414,1.08427 -0.676401,1.61742c-0.299909,0.452998 -0.792896,0.911131 -1.121474,1.246224c-0.456518,0.465549 -0.712468,1.038918 -0.967553,1.535516c-0.268604,0.522922 -0.832808,0.813131 -1.129496,1.402229c-0.224806,0.446356 -0.449381,1.117215 -0.648146,1.435602c-0.313992,0.502956 -0.785981,1.036697 -1.116199,1.55422c-0.330339,0.517707 -0.465577,1.098206 -0.823296,1.482992c-0.440452,0.47378 -1.16807,0.605295 -1.426698,1.092237c-0.270144,0.50862 -0.149643,1.128299 -0.488498,1.511495c-0.43409,0.490915 -0.920605,0.934663 -1.250451,1.268473c-0.461782,0.467321 -0.982481,0.88601 -1.295627,1.335239c-0.341955,0.490568 -0.46143,1.081235 -0.81626,1.46875c-0.443472,0.484313 -0.856725,0.867917 -1.252534,1.268493c-0.461772,0.467321 -0.857601,0.867897 -1.25342,1.268473c-0.461782,0.467321 -0.791849,0.800907 -1.25341,1.268473c-0.461128,0.467118 -0.774183,0.879388 -1.006247,1.402005c-0.243157,0.547595 -0.708422,1.001959 -1.038801,1.335239c-0.461037,0.46508 -1.014642,0.786054 -1.451319,0.990753c-0.573324,0.268755 -0.923574,0.745061 -1.319383,1.145617c-0.461792,0.467342 -0.857601,0.867917 -1.25341,1.268493c-0.461772,0.467321 -0.856967,0.868549 -1.25342,1.268473c-0.464007,0.468075 -0.822521,0.845282 -1.354121,1.12893c-0.440341,0.234954 -1.156604,0.18897 -1.61438,-0.261033c-0.382924,-0.376432 -0.586954,-0.934541 -0.593829,-1.535516c-0.006865,-0.600813 0,-1.201727 0,-1.802581c0,-0.600853 -0.009291,-1.168578 -0.357336,-1.616198c-0.366637,-0.471518 -0.866198,-0.848318 -1.153464,-1.219392c-0.43856,-0.566482 -0.61078,-1.173183 -0.894876,-1.551999c-0.439355,-0.585838 -0.782226,-1.057967 -1.008009,-1.410908c-0.443764,-0.693698 -0.711985,-1.177013 -0.956994,-1.653014c-0.173741,-0.337559 -0.568624,-1.14144 -0.798664,-1.616544c-0.122615,-0.25323 -0.381757,-0.787053 -0.767882,-1.658352c-0.13406,-0.302495 -0.398215,-0.922133 -0.632201,-1.557785c-0.116092,-0.315371 -0.34269,-0.938167 -0.52688,-1.854759c-0.05782,-0.287744 -0.130145,-0.843428 -0.154364,-1.604279c-0.020937,-0.657636 -0.005939,-1.201727 -0.005939,-1.77098c0,-0.609879 0,-1.223629 0,-1.793901c0,-0.653704 0.025326,-1.198651 -0.05629,-1.778865c-0.094692,-0.673182 -0.279676,-1.214176 -0.408462,-1.576917c-0.246348,-0.693861 -0.539643,-1.279862 -0.666396,-1.703318c-0.195584,-0.653398 -0.187793,-1.279169 -0.188236,-1.860443c-0.000473,-0.632902 0,-1.252438 0,-1.780189c0,-0.685549 0,-1.150201 0,-1.757289c0,-0.666743 0,-1.198488 0,-1.700201c0,-0.739723 0,-1.395893 0,-1.862786c0,-0.653704 -0.112388,-1.209836 0.109952,-1.87768c0.155139,-0.465997 0.613005,-1.014835 1.077495,-1.256004c0.504895,-0.262154 1.140901,0.160548 1.437579,0.504932c0.511307,0.593519 0.630047,1.040303 0.667493,1.612633c0.042026,0.642315 0.005899,1.180477 0.005939,1.729254c0.00006,0.688544 -0.00911,1.306409 0.05629,1.760284c0.097309,0.67528 0.286874,1.237239 0.370754,1.654135c0.181512,0.902166 0.201382,1.392714 0.218907,1.881021c0.017032,0.474493 0.01374,1.320345 0.01374,1.828069c0,0.745061 0.002607,1.301031 0.292138,1.738585c0.333027,0.503282 0.737482,0.833933 1.102892,1.387641c0.340828,0.516464 0.564557,1.07881 0.847917,1.588041c0.247243,0.444319 0.83461,0.7548 1.319383,1.106478c0.517246,0.37523 0.820447,0.843631 1.055511,1.377963c0.236171,0.536858 0.541777,0.916612 0.923564,1.552447c0.273415,0.455362 0.584025,0.955608 1.055511,1.45184c0.35026,0.368649 0.878418,0.891368 1.166338,1.179458c0.317122,0.317327 0.756487,0.856691 1.378089,1.247671c0.445193,0.280022 1.159765,0.29897 1.544783,-0.136751c0.314938,-0.356425 0.428795,-1.044846 0.638583,-1.734022c0.141308,-0.464204 0.369275,-0.854817 0.49345,-1.68329c0.056541,-0.377207 0.0548,-1.022027 0.05629,-1.76609c0.001107,-0.556336 0,-1.139403 0,-1.432586c0,-0.573043 0,-1.573148 0,-1.969037c0,-0.639585 -0.035956,-1.319123 0.023746,-1.850317c0.075848,-0.674852 0.28169,-1.075102 0.403298,-1.545092c0.192484,-0.74388 0.194064,-1.196002 0.249357,-1.892695c0.036188,-0.455973 0.165446,-1.256717 0.313136,-1.741825c0.212445,-0.697793 0.278489,-1.235487 0.38526,-1.763625c0.136506,-0.675178 0.330057,-1.055359 0.735338,-1.679725c0.281176,-0.433154 0.506838,-1.028038 0.525662,-1.527856c0.025075,-0.665928 0.00604,-1.249667 0.112921,-1.955346c0.064896,-0.428509 0.176237,-0.899783 0.269147,-1.418019c0.099232,-0.553504 0.20257,-1.444363 0.248814,-2.060497c0.023061,-0.307242 0.03953,-0.912537 0.143482,-1.469871c0.137523,-0.73734 0.46146,-1.292086 0.742374,-1.763299c0.318823,-0.5348 0.400912,-1.189951 0.466181,-1.821365c0.061816,-0.598021 0.44168,-1.021151 0.57866,-1.621108c0.107456,-0.470663 0.078667,-1.007419 0.080156,-1.692744c0.001268,-0.587508 0,-1.268575 0,-1.81615c0,-0.559005 0,-1.240764 0,-1.739706c0,-0.664604 -0.016911,-1.198936 0.000221,-1.866331c0.01373,-0.534617 0.203647,-1.21224 0.465084,-1.602283c0.276425,-0.412393 0.748444,-1.057254 0.826587,-1.602283c0.094813,-0.661283 0.026303,-1.201707 0.027491,-1.735815c0.00149,-0.667619 -0.005707,-1.213239 0.18735,-1.86845c0.116757,-0.396256 0.431322,-1.050347 0.471466,-1.602283c0.043657,-0.60012 0.000876,-1.202603 0.000876,-1.817372c0,-0.643028 0,-1.104115 0,-1.81725c0,-0.572268 -0.113113,-1.198182 0.05629,-1.707209c0.177334,-0.532865 0.697067,-1.001042 0.919508,-1.468771c0.302355,-0.635754 0.342096,-1.131946 0.343586,-1.735815c0.00148,-0.600853 0.000443,-1.201707 0,-1.80256c-0.000443,-0.599977 -0.234761,-1.115871 -0.857601,-1.134961c-0.593447,-0.018194 -1.187447,0 -1.781165,0c-0.527755,0 -1.121474,0 -1.662969,0c-0.636278,0 -1.115001,-0.017379 -1.767314,0.000224c-0.514669,0.013895 -1.20162,0.272402 -1.503663,0.681311c-0.381203,0.516056 -0.663909,1.005871 -1.21537,1.388191c-0.444156,0.307935 -0.861456,0.50208 -1.371163,0.924761c-0.410364,0.340309 -0.787732,0.749055 -1.319383,1.277397c-0.39295,0.390511 -0.78431,0.755086 -1.317632,1.146513c-0.475653,0.349111 -0.924571,0.796873 -1.043522,1.271712c-0.161621,0.645167 -0.24831,1.223263 -0.598671,1.664933c-0.437754,0.551833 -0.903694,0.684999 -1.379961,1.206148c-0.37777,0.413371 -0.651055,1.028364 -1.00372,1.440614c-0.372808,0.435782 -0.831943,0.778129 -1.246374,1.282388c-0.360155,0.438207 -0.131302,1.147654 0.32292,0.772444c0.373925,-0.308892 0.489997,-0.797117 1.027134,-1.440064c0.347683,-0.416182 0.626926,-0.663545 1.147978,-1.200831c0.373019,-0.384643 0.867969,-0.944565 1.043522,-1.402881c0.246015,-0.642274 0.413787,-1.143478 0.673432,-1.669049c0.261054,-0.528403 0.489202,-1.040914 0.923564,-1.578261c0.365218,-0.451817 0.739415,-0.772302 1.267492,-1.306735c0.332493,-0.336499 0.676844,-0.684978 1.183048,-1.197265c0.383166,-0.387781 0.847917,-0.858117 1.243736,-1.258693c0.395819,-0.400576 0.883843,-0.84956 1.187447,-1.258693c0.362812,-0.488938 0.53302,-1.022476 0.992507,-1.573901c0.341895,-0.410315 0.896808,-0.693128 1.347639,-0.972844c0.515092,-0.319589 0.921581,-0.775154 1.354121,-1.12783c0.491648,-0.400881 1.157289,-0.285319 1.715202,-0.518949c0.517609,-0.21676 0.989437,-0.547901 1.583256,-0.556356c0.593678,-0.008455 1.076136,-0.22491 1.583266,-0.478018c0.557581,-0.27827 1.187447,-0.189602 1.781165,-0.189602l0.593718,0" fill="#ffff00" id="svg_10" stroke="#000000" stroke-dasharray="null" stroke-linecap="null" stroke-linejoin="null" stroke-width="5"/>
  <path d="m385.48033,242.967256c0.074144,-0.809328 0.751161,-0.885647 1.302846,-0.763068c0.690311,0.153379 1.242233,0.539495 1.811358,1.023392c0.470996,0.400465 0.932834,0.921732 1.458057,1.493212c0.387163,0.421262 0.808679,0.882708 1.272322,1.38881c0.24925,0.272081 1.075946,1.173684 1.379094,1.505487c0.640372,0.700876 0.970729,1.066121 1.302976,1.438998c0.334091,0.374927 0.994126,1.123793 1.606474,1.871572c0.292423,0.357094 0.829027,1.053821 1.075595,1.392046c0.468779,0.643032 0.686634,0.953446 1.272316,1.845268c0.3613,0.550164 0.699475,1.087856 1.005406,1.641306c0.313262,0.566713 0.754278,1.520306 1.045942,2.224443c0.150844,0.364158 0.444047,1.113617 0.593149,1.490791c0.442452,1.119223 0.739751,1.82909 0.883072,2.1706c0.272861,0.650194 0.578566,1.229281 0.864529,2.284757c0.1639,0.604946 0.179173,1.258623 0.180169,2.041376c0.00095,0.753904 0,1.490915 0,2.181541c0,0.760771 0,1.477306 0,2.124759c0,0.728415 0,1.456806 0,2.185196c0,0.728391 0,1.456781 0,2.185196c0,0.728391 0.017683,1.457078 0,2.104234c-0.021202,0.775713 -0.266673,1.505833 -0.452782,1.980172c-0.291585,0.74321 -0.489867,1.392169 -0.760229,2.04597c-0.361232,0.87357 -0.608468,1.263785 -1.011334,1.767318c-0.589314,0.736591 -1.011334,1.137649 -1.482896,1.652371c-0.471562,0.514722 -0.985912,1.062984 -1.353389,1.485926c-0.393804,0.453222 -0.875978,1.090178 -1.226236,1.751388c-0.252293,0.476266 -0.585422,1.305501 -0.905178,1.896122c-0.34718,0.641253 -0.768985,1.119149 -1.322741,1.503067c-0.499541,0.346326 -1.223407,0.794213 -1.682106,1.260253c-0.434872,0.441836 -0.940273,1.022726 -1.224742,1.333238c-0.590072,0.644094 -1.050513,1.146664 -1.38466,1.511415c-0.786917,0.858973 -1.016521,1.109591 -1.51428,1.652914c-0.53928,0.588645 -0.820785,0.895922 -1.108218,1.20967c-0.883066,0.963918 -1.1783,1.289274 -1.776139,1.935122c-0.300416,0.324541 -0.601799,0.651429 -1.22537,1.294906c-0.315712,0.325776 -1.306364,1.296783 -1.651078,1.616508c-0.345828,0.320763 -0.692313,0.640241 -1.401834,1.238815c-0.347729,0.293347 -1.375456,1.087905 -1.707923,1.318394c-0.629511,0.436427 -0.938469,0.622285 -1.511938,0.98874c-0.527762,0.337261 -1.422193,0.981158 -1.787379,1.30355c-0.4979,0.439564 -1.086977,0.969846 -1.669123,1.367619c-0.628748,0.42961 -1.02043,0.752645 -1.572488,1.311651c-0.439873,0.445417 -1.087016,0.630806 -1.634521,1.021244c-0.485981,0.346573 -0.999607,1.044856 -1.386634,1.467303c-0.48838,0.533073 -0.982671,1.072642 -1.476962,1.612186c-0.360349,0.393352 -0.875407,0.955545 -1.343382,1.466364c-0.4529,0.49437 -1.077309,1.617768 -1.464234,1.245434c-0.476591,-0.458606 0.325289,-1.275888 0.830418,-2.03735c0.336998,-0.508028 0.771604,-0.973871 1.359323,-1.618657c0.295341,-0.324023 0.722843,-0.816343 1.186316,-1.225873c0.714425,-0.63125 1.20586,-0.868902 1.779476,-1.336992c0.458155,-0.373865 0.895488,-0.81654 1.359323,-1.483777c0.432915,-0.622754 0.655589,-1.154246 1.103274,-1.780384c0.353805,-0.494839 0.840657,-1.119149 1.438038,-1.653457c0.460565,-0.411926 1.038543,-0.627817 1.819758,-0.855589c0.594648,-0.17336 0.907215,-0.229945 1.508233,-0.404664c1.044652,-0.303671 1.482783,-0.495605 2.16725,-0.820937c0.864517,-0.410913 1.211873,-0.589979 1.594363,-0.772922c0.834055,-0.398959 1.274697,-0.607836 1.722133,-0.822271c0.449223,-0.215299 1.746441,-0.846821 2.143033,-1.046733c0.378446,-0.190773 1.08998,-0.558364 1.755995,-0.928031c0.327121,-0.18156 1.307846,-0.760054 1.643917,-0.967944c0.68923,-0.426374 1.034623,-0.64812 1.718304,-1.09529c0.335465,-0.219424 1.281814,-0.855787 1.847686,-1.246373c0.525505,-0.362701 1.022421,-0.714658 1.521453,-1.039175c0.764494,-0.497136 1.312208,-0.810736 1.588678,-0.972266c0.555271,-0.324418 1.111108,-0.636338 1.892912,-1.132931c0.493137,-0.313229 1.165244,-0.784803 1.582999,-1.064145c0.738031,-0.493506 1.234133,-0.782703 1.992019,-1.202112c0.447623,-0.247704 0.922511,-0.503286 1.606474,-0.944208c0.59488,-0.383497 1.010033,-0.693738 1.479185,-0.955545c0.989714,-0.552313 1.551083,-0.734294 2.119919,-0.916027c0.578521,-0.184821 0.874733,-0.261041 1.763903,-0.502323c0.589586,-0.159998 1.166771,-0.330815 2.012915,-0.497606c0.785243,-0.154787 1.277441,-0.199813 1.956427,-0.222289c0.800437,-0.026502 1.334631,0.077085 1.916648,-0.054905c0.815575,-0.184969 1.259215,-0.641822 2.015993,-0.923856c0.482955,-0.17998 1.042933,-0.315205 1.654919,-0.417606c0.983616,-0.164568 1.331396,-0.155849 2.028596,-0.227698c0.704747,-0.072639 1.075086,-0.057276 2.081985,-0.4079c0.669844,-0.233255 0.974587,-0.44191 1.575577,-0.826198c0.585377,-0.374285 1.381911,-0.945073 1.894405,-1.219797c0.467433,-0.250569 1.123022,-0.530109 1.902053,-0.688453c0.512144,-0.104105 1.197612,-0.130582 1.930733,-0.329135c0.59772,-0.161876 1.175924,-0.363269 1.859186,-0.821184c0.43382,-0.290729 1.084544,-0.815799 1.49809,-1.052142c0.728381,-0.416273 1.194241,-0.656073 1.708048,-0.936527c0.836629,-0.45668 1.330977,-0.722142 1.842996,-1.022726c0.518208,-0.304214 1.246487,-0.776578 1.652939,-1.116186c0.555882,-0.46446 1.014785,-0.970661 1.609427,-1.618657c0.296835,-0.323455 0.741437,-0.809328 1.334609,-1.456806c0.444862,-0.485577 0.891308,-0.96945 1.482772,-1.618657c0.294165,-0.322887 0.743779,-0.784185 1.211155,-1.456781c0.428865,-0.617172 0.632894,-1.141798 1.223882,-1.712537c0.476551,-0.460212 1.136632,-0.95515 1.401834,-1.417955c0.315559,-0.550683 0.590921,-1.319135 0.82251,-1.93159c0.257192,-0.680154 0.515448,-1.407952 0.640123,-1.781866c0.370317,-1.110554 0.572208,-1.826398 0.660624,-2.174255c0.171424,-0.674424 0.323218,-1.333287 0.441162,-2.312395c0.077985,-0.647379 0.102999,-1.312022 0.11567,-2.000647c0.013384,-0.72723 0.007908,-1.50645 0.007908,-2.343837c0,-0.434871 0,-1.320815 0,-1.765417c0,-0.876213 0,-1.713599 0,-2.492721c0,-0.727329 0,-1.415781 0,-2.07835c0,-0.973081 0,-1.613544 0,-2.234569c0,-0.588645 0,-1.617694 0,-2.250204c0,-0.574221 0,-1.361815 0,-2.012528c0,-0.665261 0,-1.499683 0,-2.211896c0,-0.825778 0,-1.452187 0,-2.187864c0,-0.647478 0,-1.424031 0,-2.066223c0,-0.627644 0.021994,-1.599194 0,-2.389134c-0.015828,-0.568417 -0.130446,-1.162372 -0.494302,-1.888441c-0.316068,-0.630707 -0.774948,-1.284236 -1.004037,-1.635526c-0.463677,-0.711027 -0.720314,-1.040731 -1.271467,-2.052441c-0.313081,-0.57469 -0.522881,-1.124435 -0.747376,-1.600059c-0.405321,-0.858751 -0.791058,-1.402567 -1.189037,-1.865101c-0.555023,-0.645057 -0.947582,-1.041595 -1.463618,-1.604875c-0.503195,-0.549275 -0.85558,-1.002053 -1.424688,-1.551501c-0.534816,-0.516352 -1.123655,-0.582619 -1.786768,-0.620062c-0.642069,-0.036258 -1.264,-0.355193 -1.814701,-0.886487c-0.393849,-0.379965 -1.025125,-0.690478 -1.708534,-0.724908c-0.73733,-0.037147 -1.331271,-0.003631 -2.073092,-0.003631c-0.468225,0 -1.016527,0 -1.975094,0c-0.595141,0 -1.243659,0 -1.580521,0c-0.684111,0 -1.692356,0 -2.333215,0c-0.620098,0 -1.225365,0 -2.118437,0c-0.593161,0 -1.186321,0 -1.779471,0c-0.593161,0 -1.482896,0 -2.076057,0c-0.593161,0 -1.186321,0 -2.076057,0c-0.591181,0 -1.170494,0 -1.726093,0c-0.519996,0 -1.411711,0 -1.981147,0c-0.569436,0 -1.461151,0 -1.981147,0c-0.5556,0 -1.134912,-0.002569 -2.022668,0.000123c-0.593172,0.001803 -1.187091,0.001976 -1.779482,0.046137c-0.891353,0.06644 -1.482624,0.179239 -2.068148,0.297966c-0.575104,0.116603 -1.1274,0.265289 -2.169971,0.397106c-0.487039,0.061574 -0.97418,0.057672 -1.96533,0.202875c-0.535111,0.078394 -1.088696,0.213619 -1.6638,0.330222c-0.585524,0.118727 -1.47552,0.244542 -2.078161,0.308882c-0.629658,0.06723 -1.305974,0.156738 -1.662692,0.241455c-1.202081,0.285517 -1.628943,0.480391 -2.074201,0.657431c-0.455452,0.181116 -0.913166,0.373124 -1.802709,0.800709c-0.430618,0.207 -1.227718,0.617617 -1.907382,1.017316c-0.58911,0.346449 -1.084307,0.681932 -1.521441,0.971204c-0.742449,0.491307 -1.416191,0.840177 -1.871422,1.338079c-0.447385,0.489307 -0.706681,1.166201 -1.014298,1.807503c-0.313132,0.652812 -0.703033,1.306588 -1.076087,1.776877c-0.374593,0.472215 -0.983039,1.119298 -1.354255,1.524505c-0.53446,0.583409 -1.003873,1.044016 -1.424201,1.563233c-0.473859,0.585335 -0.74599,1.150986 -1.038028,1.77295c-0.302282,0.643773 -0.590802,1.316048 -1.013308,1.941321c-0.341082,0.504768 -0.773205,0.972142 -1.359323,1.618657c-0.44088,0.486318 -0.893214,0.945023 -1.359323,1.618657c-0.329067,0.475574 -0.590706,1.027542 -0.988594,1.888441c-0.237371,0.513586 -0.491927,1.072938 -0.747382,1.660743c-0.256666,0.590596 -0.599411,1.449964 -0.795323,1.992546c-0.285069,0.789495 -0.45927,1.330645 -0.796443,2.16403c-0.239848,0.592819 -0.504711,1.18838 -0.802988,1.755414c-0.422274,0.802759 -0.880317,1.455596 -1.167529,1.835709c-0.393312,0.520526 -0.840578,1.16662 -1.193856,1.785102c-0.377082,0.660148 -0.781113,1.239482 -1.045937,1.89059c-0.264823,0.651108 -0.608926,1.111172 -1.038028,1.88197c-0.3073,0.552017 -0.667989,1.146516 -1.186316,1.760008c-0.355745,0.421064 -0.704322,1.198704 -0.73354,1.760008c-0.044553,0.855861 0.374955,1.13881 0.672248,0.50504c0.246331,-0.525145 0.60943,-1.152419 1.021222,-1.736816c0.423264,-0.600673 0.425595,-1.253511 0.538782,-2.005538c0.126831,-0.842696 0.629477,-1.234542 1.109208,-1.59707c0.636865,-0.481255 1.104411,-1.103811 1.3959,-1.640243c0.301886,-0.555574 0.660137,-1.161557 1.101294,-1.666128c0.55599,-0.635919 0.959987,-1.040212 1.444345,-1.577657c0.467308,-0.518525 0.726452,-1.235135 1.029249,-1.834474c0.275786,-0.545892 0.8738,-1.052117 1.392936,-1.61878c0.397294,-0.433661 0.905422,-0.98832 1.279121,-1.396245c0.512082,-0.558982 0.925713,-1.08383 1.429021,-1.513564c0.6317,-0.539346 1.159361,-0.861393 1.846328,-1.009512c0.624884,-0.134732 1.302846,-0.181141 1.747713,-0.540483l0.519017,-0.557895" fill="#ffff00" id="svg_20" stroke="#000000" stroke-dasharray="null" stroke-linecap="null" stroke-linejoin="null" stroke-width="5" transform="rotate(16.7244 406.932 268.296)"/>
  <path d="m406.990774,242.55711c1.074517,0.172395 1.770783,0.584868 2.466557,1.344752c0.627223,0.685035 0.770178,1.603613 1.316635,2.275768c0.645947,0.794514 1.374479,1.344752 2.030657,1.976468c0.812332,0.782045 1.322652,1.302387 1.934135,1.824719c0.826301,0.705839 1.777128,1.119701 2.384004,1.679946c0.76962,0.710479 1.071812,1.665582 1.795164,2.380576c0.530127,0.524004 1.424978,1.155184 1.862485,1.965419c0.415487,0.769449 0.849239,1.642222 1.468509,2.277126c0.5499,0.563781 1.228687,1.478602 1.550357,2.219892c0.391762,0.902826 0.591234,1.837914 1.140773,2.433705c0.698659,0.757485 1.346147,1.548526 1.392039,2.482636c0.045695,0.929943 0,1.75852 0,2.689536c0,0.849096 0,1.845428 0,2.738467c0,0.926344 -0.133478,1.925422 0.00018,2.847283c0.120231,0.82924 1.273727,0.801649 1.972632,0.469139c0.850403,-0.404581 1.712807,-1.038507 2.28048,-1.606833c0.814578,-0.815507 1.071091,-1.55181 1.120721,-2.569544c0.034841,-0.714552 0.261366,-1.720669 0.859617,-2.394371c0.681017,-0.766892 1.056416,-1.631646 1.525993,-2.380386c0.469347,-0.748393 1.712988,-0.923787 1.909607,-1.760098c0.213162,-0.906709 0.001426,-1.860612 0.001426,-2.791597c0,-0.930985 0,-1.861969 0,-2.792986c0,-0.930985 0,-1.861969 0,-2.689504c0,-0.931016 0,-1.862001 0,-2.792986c0,-0.930985 0,-1.861969 0,-2.794343c0,-0.707575 0,-1.679946 0,-2.722651c0,-0.819264 0,-1.708862 0,-2.659704c0,-1.028405 0.000082,-1.820078 0,-2.803466c-0.000098,-1.019282 -0.008723,-1.801737 -0.656178,-2.570933c-0.662425,-0.787001 -1.479249,-1.357222 -2.306451,-1.443561c-0.961435,-0.100356 -1.770078,-0.004641 -2.839759,-0.004641c-0.859617,0 -1.934315,0 -2.816132,0c-1.231229,0 -2.081582,-0.069987 -2.920361,0.07447c-1.019772,0.175615 -1.685574,0.844771 -2.303762,1.495113c-0.615532,0.647532 -1.425306,1.111998 -2.490199,1.637328c-0.654981,0.323103 -1.35828,0.667294 -2.386856,1.263211c-0.88185,0.510904 -1.481987,0.901184 -2.127376,1.23581c-1.265283,0.656055 -1.90977,0.877224 -2.776913,1.22012l-1.121426,0.5205l-0.710973,0.459447" fill="#ffffff" id="svg_21" stroke="#000000" stroke-dasharray="null" stroke-linecap="null" stroke-linejoin="null" stroke-width="5" transform="rotate(33.0197 421.544 255.862)"/>
 </g>
</svg>